<svg width="200" height="55" viewBox="0 0 200 55" fill="none" xmlns="http://www.w3.org/2000/svg">
<path d="M146.865 29.8159L154.062 19.3656C154.075 19.3448 154.083 19.3209 154.085 19.2961C154.086 19.2712 154.081 19.2464 154.07 19.2242C154.059 19.202 154.042 19.1831 154.021 19.1694C154 19.1556 153.976 19.1476 153.951 19.146H145.274C145.249 19.1429 145.225 19.1486 145.204 19.162C145.184 19.1755 145.169 19.1958 145.163 19.2192L142.258 24.2344L139.723 19.2192C139.713 19.1948 139.694 19.1744 139.671 19.1611C139.648 19.1479 139.62 19.1426 139.594 19.146H130.898C130.872 19.1457 130.847 19.1526 130.825 19.1659C130.803 19.1792 130.785 19.1985 130.773 19.2214C130.761 19.2443 130.757 19.27 130.759 19.2955C130.762 19.321 130.771 19.3453 130.787 19.3656L138.317 29.6703L130.583 40.6339C130.57 40.6547 130.562 40.6786 130.56 40.7034C130.559 40.7282 130.564 40.753 130.575 40.7753C130.586 40.7975 130.603 40.8165 130.624 40.8302C130.645 40.8439 130.669 40.8519 130.694 40.8535H139.353C139.379 40.8507 139.403 40.8427 139.426 40.8301C139.448 40.8175 139.467 40.8006 139.483 40.7803L142.258 35.2163L145.588 40.7986C145.6 40.8183 145.616 40.8352 145.635 40.8479C145.654 40.8605 145.676 40.8687 145.699 40.8718H154.376C154.402 40.872 154.427 40.865 154.45 40.8517C154.472 40.8383 154.489 40.8191 154.501 40.7963C154.513 40.7734 154.517 40.7477 154.515 40.7222C154.513 40.6968 154.503 40.6725 154.487 40.6522L146.865 29.8159Z" fill="white"/>
<path d="M170.898 28.3136L181 19.2538C181.009 19.247 181.015 19.2374 181.018 19.2267C181.021 19.216 181.02 19.2047 181.016 19.1944C181.012 19.1841 181.005 19.1754 180.995 19.1696C180.985 19.1638 180.974 19.1612 180.963 19.1623H171.12C171.102 19.1623 171.083 19.1623 171.083 19.1806L164.589 25.861V13.342C164.59 13.3346 164.59 13.327 164.587 13.3199C164.585 13.3127 164.581 13.3062 164.575 13.3008C164.57 13.2955 164.563 13.2915 164.556 13.2891C164.549 13.2867 164.541 13.286 164.534 13.2871H156.948C156.94 13.2861 156.933 13.2868 156.925 13.2892C156.918 13.2916 156.912 13.2957 156.906 13.301C156.901 13.3063 156.897 13.3128 156.894 13.3199C156.892 13.3271 156.891 13.3346 156.892 13.342V40.8329C156.891 40.8403 156.892 40.848 156.894 40.8551C156.897 40.8623 156.901 40.8688 156.906 40.8741C156.912 40.8794 156.918 40.8835 156.925 40.8858C156.933 40.8882 156.94 40.8889 156.948 40.8878H164.534C164.541 40.8889 164.549 40.8882 164.556 40.8858C164.563 40.8835 164.57 40.8794 164.575 40.8741C164.581 40.8688 164.585 40.8623 164.587 40.8551C164.59 40.848 164.59 40.8403 164.589 40.8329V33.9877L166.069 32.6516L171.823 40.8698C171.83 40.8767 171.839 40.882 171.849 40.8851C171.858 40.8883 171.869 40.8893 171.879 40.8881H180.592C180.603 40.8891 180.614 40.8866 180.624 40.8808C180.634 40.875 180.641 40.8663 180.645 40.856C180.649 40.8457 180.65 40.8344 180.647 40.8236C180.644 40.8129 180.638 40.8034 180.629 40.7965L170.898 28.3136Z" fill="white"/>
<path d="M199.649 31.9566C199.425 31.4006 199.106 30.8868 198.706 30.4375C198.054 29.7797 197.29 29.2407 196.449 28.8451C195.389 28.3424 194.287 27.9321 193.156 27.6188C192.027 27.326 191.176 27.0698 190.584 26.8684C190.149 26.7371 189.728 26.5656 189.326 26.356C189.056 26.2464 188.825 26.0618 188.66 25.8246C188.528 25.6157 188.458 25.3751 188.456 25.1291C188.453 24.944 188.497 24.761 188.586 24.5978C188.667 24.431 188.796 24.2911 188.956 24.1948C189.143 24.0799 189.35 23.9993 189.566 23.9571C189.865 23.9008 190.169 23.8763 190.473 23.884C191.105 23.8906 191.732 24.0084 192.323 24.2317C192.983 24.4683 193.621 24.7623 194.229 25.1102C194.746 25.4008 195.236 25.7378 195.691 26.1169C195.736 26.1543 195.793 26.1732 195.852 26.1698C195.91 26.1664 195.965 26.1409 196.005 26.0986C196.634 25.4214 199.002 22.8218 199.65 22.1269C199.671 22.1041 199.687 22.0775 199.697 22.0485C199.707 22.0196 199.712 21.989 199.71 21.9584C199.708 21.9278 199.7 21.8978 199.687 21.8702C199.674 21.8425 199.655 21.8178 199.632 21.7974C198.857 21.1785 198.013 20.6503 197.115 20.2234C196.088 19.7378 195.008 19.3693 193.896 19.1253C192.7 18.8632 191.477 18.7345 190.251 18.7415C189.112 18.743 187.978 18.9032 186.884 19.2174C185.824 19.508 184.822 19.9786 183.924 20.6083C183.084 21.1739 182.382 21.9181 181.87 22.7864C181.364 23.6671 181.109 24.6666 181.13 25.6793C181.118 26.5306 181.294 27.3742 181.648 28.1502C181.989 28.8947 182.473 29.5665 183.073 30.1281C183.765 30.7338 184.544 31.2336 185.386 31.6106C186.38 32.0642 187.414 32.4257 188.475 32.6904C189.4 32.91 190.159 33.1114 190.713 33.2761C191.268 33.4592 191.675 33.5873 191.934 33.6971C192.143 33.7875 192.321 33.9361 192.446 34.1248C192.571 34.3136 192.637 34.5342 192.637 34.7598C192.636 34.9409 192.585 35.1183 192.488 35.2723C192.39 35.4274 192.265 35.5638 192.118 35.675C191.949 35.8139 191.744 35.9028 191.526 35.9312C191.252 35.9861 190.973 36.0106 190.694 36.0044C189.497 35.9596 188.318 35.6996 187.215 35.2369C186.43 34.9288 185.704 34.4894 185.069 33.938C184.984 33.867 184.876 33.8282 184.764 33.8282C184.652 33.8282 184.544 33.867 184.459 33.938L180.444 37.3606C180.421 37.381 180.402 37.4057 180.389 37.4333C180.375 37.4609 180.367 37.4909 180.366 37.5215C180.364 37.5521 180.368 37.5827 180.379 37.6116C180.389 37.6406 180.405 37.6672 180.425 37.69C181.51 38.8216 182.838 39.6974 184.311 40.2524C186.224 40.9975 188.268 41.3588 190.324 41.3151C192.032 41.35 193.728 41.0257 195.3 40.3634C196.667 39.7997 197.856 38.8831 198.742 37.7095C199.57 36.5966 200.012 35.248 200 33.866C199.998 33.214 199.879 32.5675 199.649 31.9566Z" fill="white"/>
<path d="M130.084 27.5461C129.797 26.0475 129.22 24.618 128.383 23.3365C127.613 22.1688 126.612 21.1667 125.442 20.3898C124.292 19.6201 122.984 19.1136 121.612 18.9072C120.14 18.6756 118.635 18.7442 117.19 19.1085C115.7 19.4426 114.292 20.0646 113.046 20.9388C111.887 21.7656 110.911 22.8182 110.178 24.0319C109.451 25.2716 108.973 26.639 108.772 28.0585C108.566 29.5923 108.654 31.1508 109.031 32.6524C109.467 34.6369 110.431 36.4698 111.825 37.9606C113.183 39.3858 114.921 40.4011 116.838 40.8889C118.818 41.4203 121.038 41.4014 123.463 40.8157C124.421 40.5943 125.352 40.2691 126.238 39.8457C127.161 39.4081 128.03 38.8676 128.828 38.2348C129.032 38.0701 129.235 37.9053 129.42 37.7406C129.496 37.6713 129.543 37.5756 129.55 37.4734C129.556 37.3711 129.523 37.2702 129.457 37.1915L126.182 33.4761C126.115 33.3984 126.019 33.3494 125.916 33.3392C125.813 33.329 125.709 33.3583 125.627 33.4212C125.461 33.5493 125.294 33.6774 125.128 33.7872C124.007 34.5255 122.749 35.0357 121.428 35.288C120.29 35.5229 119.113 35.4979 117.986 35.2149C117.75 35.1457 117.52 35.0537 117.302 34.9403C116.915 34.7224 116.544 34.4778 116.192 34.2082C115.933 34.0089 115.686 33.795 115.452 33.5676C115.267 33.4029 114.952 33.0551 114.786 32.8721L130.068 29.3028C130.168 29.2799 130.255 29.2191 130.31 29.1336C130.365 29.0481 130.385 28.9446 130.364 28.8452L130.084 27.5461ZM124.09 26.9603L114.728 29.157C114.697 29.1643 114.663 29.1647 114.631 29.1582C114.599 29.1517 114.569 29.1385 114.543 29.1194C114.517 29.1003 114.495 29.0757 114.479 29.0474C114.463 29.0192 114.453 28.9879 114.451 28.9556C114.432 28.6616 114.451 28.3664 114.506 28.0771C114.683 27.1269 115.148 26.2525 115.838 25.5697C116.659 24.8282 117.671 24.3273 118.763 24.1232C119.569 23.9231 120.409 23.9043 121.223 24.0683C121.96 24.2203 122.642 24.5611 123.203 25.0566C123.698 25.4984 124.057 26.0693 124.239 26.7038C124.252 26.7302 124.258 26.7591 124.256 26.7882C124.255 26.8172 124.247 26.8456 124.232 26.8708C124.217 26.896 124.197 26.9173 124.172 26.9329C124.147 26.9485 124.119 26.9579 124.09 26.9603H124.09Z" fill="white"/>
<path d="M89.5476 33.3845C88.16 34.6833 86.8279 36.7522 85.5698 37.7588C85.4871 37.8246 85.4207 37.9084 85.3758 38.0036C85.3309 38.0988 85.3086 38.2029 85.3108 38.3079V40.3944C85.3102 40.4546 85.3218 40.5144 85.3448 40.5702C85.3678 40.6259 85.4019 40.6767 85.445 40.7193C85.488 40.7619 85.5392 40.7955 85.5956 40.8183C85.652 40.8411 85.7125 40.8526 85.7734 40.852H92.5448C92.6057 40.8526 92.6661 40.8411 92.7225 40.8183C92.7789 40.7955 92.8301 40.7619 92.8732 40.7193C92.9163 40.6767 92.9503 40.6259 92.9733 40.5702C92.9964 40.5144 93.0079 40.4546 93.0073 40.3944V34.8484C93.0059 34.4526 92.8874 34.0658 92.6664 33.7359C92.4455 33.4059 92.1317 33.1472 91.7639 32.9915C91.396 32.8359 90.9901 32.7901 90.5963 32.8599C90.2024 32.9298 89.8379 33.1121 89.5476 33.3845Z" fill="white"/>
<path d="M103.331 19.6937C102.053 18.9953 100.61 18.6476 99.1501 18.6871C97.9613 18.6861 96.7845 18.9227 95.6904 19.3826C94.6299 19.8193 93.6677 20.4601 92.8596 21.2678C92.8411 21.2861 92.8412 21.3044 92.8227 21.3044V13.6905C92.8233 13.6303 92.8117 13.5704 92.7886 13.5147C92.7656 13.4589 92.7316 13.4082 92.6885 13.3656C92.6454 13.323 92.5942 13.2893 92.5378 13.2665C92.4814 13.2437 92.421 13.2323 92.3601 13.2329H85.7922C85.7313 13.2323 85.6709 13.2437 85.6145 13.2665C85.5581 13.2893 85.5069 13.323 85.4638 13.3656C85.4207 13.4082 85.3867 13.4589 85.3637 13.5147C85.3406 13.5704 85.3291 13.6303 85.3297 13.6905V28.4427C85.3322 28.5336 85.3135 28.6238 85.275 28.7063C85.2365 28.7889 85.1792 28.8615 85.1077 28.9186C83.17 30.6309 81.0766 32.1626 78.8542 33.4942C77.2076 34.446 75.5795 35.1231 74.1364 35.3062H74.0994C74.0202 35.3214 73.9395 35.3275 73.8589 35.3245H73.8404C73.7664 35.3245 73.6912 35.3428 73.5999 35.3428C73.1406 35.3672 72.6801 35.3302 72.2308 35.2329C72.0816 35.1963 71.9348 35.1597 71.8053 35.1231H71.7868C71.4016 35.0095 71.0295 34.8562 70.6767 34.6656C69.898 34.2082 69.2339 33.5824 68.7341 32.8353C68.4793 32.4365 68.2802 32.0056 68.142 31.5541C67.9756 31.0271 67.8945 30.4773 67.9015 29.9252C67.9003 29.4482 67.9688 28.9735 68.1051 28.5159C68.2544 28.0072 68.4722 27.5206 68.7526 27.0694C69.1781 26.3922 70.1402 25.4954 70.6767 25.2574C71.0792 25.0486 71.5004 24.8771 71.9348 24.745C72.4603 24.6095 73.0013 24.5418 73.5444 24.5436C74.2237 24.5715 74.8932 24.7139 75.524 24.9646C76.0563 25.193 76.5496 25.5018 76.9862 25.8798C77.2637 26.1177 77.6338 26.5935 77.8743 26.8315C77.9162 26.8756 77.9671 26.9105 78.0236 26.9338C78.0801 26.9571 78.141 26.9682 78.2022 26.9665C78.2634 26.9648 78.3236 26.9502 78.3787 26.9238C78.4338 26.8973 78.4825 26.8596 78.5218 26.8132L82.0729 22.6402C82.149 22.5504 82.1908 22.437 82.1908 22.3199C82.1908 22.2027 82.149 22.0893 82.0729 21.9996C81.0398 20.9368 79.7739 20.1227 78.3726 19.6202C76.6259 18.9833 74.7763 18.6669 72.9148 18.6868C70.8756 18.6581 68.8651 19.1633 67.0869 20.151C65.3916 21.096 63.9903 22.4822 63.0351 24.1593C62.032 25.9298 61.5213 27.9318 61.555 29.9612C61.5213 31.9906 62.032 33.9926 63.0351 35.7632C63.9903 37.4402 65.3916 38.8265 67.0869 39.7714C68.8651 40.7592 70.8756 41.2643 72.9148 41.2356C73.3218 41.2356 73.7103 41.2173 74.0989 41.1987C86.1989 38.618 92.1008 25.3301 95.6345 25.3301C97.0776 25.3301 97.9287 25.9706 98.4282 26.7027C98.5826 26.8805 98.713 27.0774 98.8162 27.2885C99.0556 27.8495 99.1692 28.4551 99.1492 29.0638V40.3751C99.1486 40.4353 99.1601 40.4951 99.1832 40.5509C99.2062 40.6067 99.2403 40.6574 99.2833 40.7C99.3264 40.7426 99.3776 40.7763 99.434 40.7991C99.4904 40.8218 99.5508 40.8332 99.6117 40.8326H106.345C106.406 40.8332 106.467 40.8218 106.523 40.7991C106.579 40.7763 106.631 40.7426 106.674 40.7C106.717 40.6574 106.751 40.6067 106.774 40.5509C106.797 40.4951 106.808 40.4353 106.808 40.3751V27.4714C106.808 25.568 106.512 23.9574 105.92 22.6396C105.381 21.4194 104.478 20.3915 103.331 19.6937Z" fill="white"/>
<path d="M1.86855 42.5904L22.7197 54.5057C23.2814 54.8294 23.9198 54.9999 24.5698 54.9999C25.2199 54.9999 25.8583 54.8294 26.4199 54.5057L47.7521 42.3159C47.8917 42.2338 48.0073 42.1173 48.0876 41.9777C48.1679 41.8381 48.2101 41.6803 48.2101 41.5197C48.2101 41.3591 48.1679 41.2013 48.0876 41.0617C48.0073 40.9221 47.8917 40.8056 47.7521 40.7235L24.5698 27.4722L1.86855 40.449C1.68224 40.5604 1.52815 40.7175 1.42119 40.9051C1.31424 41.0926 1.25806 41.3043 1.25806 41.5197C1.25806 41.7351 1.31424 41.9467 1.42119 42.1343C1.52815 42.3219 1.68224 42.479 1.86855 42.5904Z" fill="url(#paint0_linear_2978_176)"/>
<path d="M6.30892 45.135L1.85012 42.5909C1.28856 42.2695 0.822115 41.8079 0.497441 41.2523C0.172768 40.6966 0.00123768 40.0664 0 39.4246V15.5759C0.00123768 14.9341 0.172768 14.3039 0.497441 13.7483C0.822115 13.1926 1.28856 12.731 1.85012 12.4096L22.7198 0.494336C23.2814 0.170611 23.9199 0 24.5699 0C25.2199 0 25.8583 0.170611 26.42 0.494336L47.7522 12.6839C47.8918 12.7659 48.0074 12.8824 48.0877 13.022C48.168 13.1616 48.2102 13.3194 48.2102 13.48C48.2102 13.6406 48.168 13.7985 48.0877 13.9381C48.0074 14.0776 47.8918 14.1942 47.7522 14.2762L6.29041 37.9601C5.65611 38.3263 5.13018 38.8509 4.76527 39.4814C4.40036 40.1119 4.20929 40.8262 4.21117 41.5528C4.21304 42.2793 4.40779 42.9927 4.77594 43.6213C5.1441 44.25 5.67273 44.772 6.30892 45.135Z" fill="url(#paint1_linear_2978_176)"/>
<path d="M6.30892 45.135L1.85012 42.5909C1.28856 42.2695 0.822115 41.8079 0.497441 41.2523C0.172768 40.6966 0.00123768 40.0664 0 39.4246V15.5759C0.00123768 14.9341 0.172768 14.3039 0.497441 13.7483C0.822115 13.1926 1.28856 12.731 1.85012 12.4096L22.7198 0.494336C23.2814 0.170611 23.9199 0 24.5699 0C25.2199 0 25.8583 0.170611 26.42 0.494336L47.7522 12.6839C47.8918 12.7659 48.0074 12.8824 48.0877 13.022C48.168 13.1616 48.2102 13.3194 48.2102 13.48C48.2102 13.6406 48.168 13.7985 48.0877 13.9381C48.0074 14.0776 47.8918 14.1942 47.7522 14.2762L6.29041 37.9601C5.65611 38.3263 5.13018 38.8509 4.76527 39.4814C4.40036 40.1119 4.20929 40.8262 4.21117 41.5528C4.21304 42.2793 4.40779 42.9927 4.77594 43.6213C5.1441 44.25 5.67273 44.772 6.30892 45.135Z" fill="url(#paint2_linear_2978_176)"/>
<defs>
<linearGradient id="paint0_linear_2978_176" x1="-17.8045" y1="8.67074" x2="10.2207" y2="71.7775" gradientUnits="userSpaceOnUse">
<stop/>
<stop offset="0.248" stop-color="#270C52"/>
<stop offset="1" stop-color="#6A4BFC"/>
</linearGradient>
<linearGradient id="paint1_linear_2978_176" x1="44.1605" y1="-7.49241" x2="-7.26927" y2="55.3573" gradientUnits="userSpaceOnUse">
<stop stop-color="#00DED9"/>
<stop offset="0.045" stop-color="#10C8DE"/>
<stop offset="0.14" stop-color="#2E9FE8"/>
<stop offset="0.234" stop-color="#467EF0"/>
<stop offset="0.323" stop-color="#5667F5"/>
<stop offset="0.407" stop-color="#6159F9"/>
<stop offset="0.479" stop-color="#6454FA"/>
<stop offset="0.617" stop-color="#5543D1"/>
<stop offset="0.925" stop-color="#30176B"/>
<stop offset="0.998" stop-color="#270C52"/>
</linearGradient>
<linearGradient id="paint2_linear_2978_176" x1="-5.39954" y1="-1.35405" x2="27.8245" y2="35.0941" gradientUnits="userSpaceOnUse">
<stop stop-color="white" stop-opacity="0.8"/>
<stop offset="0.211" stop-color="#CFCAFD" stop-opacity="0.616"/>
<stop offset="0.442" stop-color="#A198FC" stop-opacity="0.412"/>
<stop offset="0.643" stop-color="#8073FB" stop-opacity="0.235"/>
<stop offset="0.806" stop-color="#6B5CFA" stop-opacity="0.09"/>
<stop offset="0.909" stop-color="#6454FA" stop-opacity="0"/>
</linearGradient>
</defs>
</svg>
