<svg width="167" height="42" viewBox="0 0 167 42" fill="none" xmlns="http://www.w3.org/2000/svg">
<g clip-path="url(#clip0_2986_633)">
<path d="M48.6307 29.2935H60.5827V25.6935H52.8787V12.1335H48.6307V29.2935Z" fill="#9CA3AF"/>
<path d="M67.6639 26.8936C65.9599 26.8936 65.0719 25.4056 65.0719 23.1736C65.0719 20.9416 65.9599 19.4296 67.6639 19.4296C69.3679 19.4296 70.2799 20.9416 70.2799 23.1736C70.2799 25.4056 69.3679 26.8936 67.6639 26.8936ZM67.6879 29.6776C71.6479 29.6776 74.2399 26.8696 74.2399 23.1736C74.2399 19.4776 71.6479 16.6696 67.6879 16.6696C63.7519 16.6696 61.1119 19.4776 61.1119 23.1736C61.1119 26.8696 63.7519 29.6776 67.6879 29.6776Z" fill="#9CA3AF"/>
<path d="M81.0943 33.5416C82.9183 33.5416 84.5263 33.1336 85.6063 32.1736C86.5903 31.2856 87.2383 29.9416 87.2383 28.0936V17.0056H83.4943V18.3256H83.4463C82.7263 17.2936 81.6223 16.6456 79.9903 16.6456C76.9423 16.6456 74.8303 19.1896 74.8303 22.7896C74.8303 26.5576 77.3983 28.6216 80.1583 28.6216C81.6463 28.6216 82.5823 28.0216 83.3023 27.2056H83.3983V28.4296C83.3983 29.9176 82.7023 30.7816 81.0463 30.7816C79.7503 30.7816 79.1023 30.2296 78.8863 29.5816H75.0943C75.4783 32.1496 77.7103 33.5416 81.0943 33.5416ZM81.0703 25.7176C79.6063 25.7176 78.6463 24.5176 78.6463 22.6696C78.6463 20.7976 79.6063 19.5976 81.0703 19.5976C82.7023 19.5976 83.5663 20.9896 83.5663 22.6456C83.5663 24.3736 82.7743 25.7176 81.0703 25.7176Z" fill="#9CA3AF"/>
<path d="M94.9366 26.8936C93.2326 26.8936 92.3447 25.4056 92.3447 23.1736C92.3447 20.9416 93.2326 19.4296 94.9366 19.4296C96.6406 19.4296 97.5526 20.9416 97.5526 23.1736C97.5526 25.4056 96.6406 26.8936 94.9366 26.8936ZM94.9606 29.6776C98.9206 29.6776 101.513 26.8696 101.513 23.1736C101.513 19.4776 98.9206 16.6696 94.9606 16.6696C91.0246 16.6696 88.3846 19.4776 88.3846 23.1736C88.3846 26.8696 91.0246 29.6776 94.9606 29.6776Z" fill="#9CA3AF"/>
<path d="M102.655 29.2935H106.567V17.0055H102.655V29.2935ZM102.655 15.3015H106.567V12.1335H102.655V15.3015Z" fill="#9CA3AF"/>
<path d="M108.264 33.3496H112.176V28.0216H112.224C112.992 29.0536 114.12 29.6776 115.704 29.6776C118.92 29.6776 121.056 27.1336 121.056 23.1496C121.056 19.4536 119.064 16.6456 115.8 16.6456C114.12 16.6456 112.92 17.3896 112.08 18.4936H112.008V17.0056H108.264V33.3496ZM114.696 26.6536C113.016 26.6536 112.056 25.2856 112.056 23.2936C112.056 21.3016 112.92 19.7896 114.624 19.7896C116.304 19.7896 117.096 21.1816 117.096 23.2936C117.096 25.3816 116.184 26.6536 114.696 26.6536Z" fill="#9CA3AF"/>
<path d="M127.426 29.6776C130.642 29.6776 133.018 28.2856 133.018 25.5976C133.018 22.4536 130.474 21.9016 128.314 21.5416C126.754 21.2536 125.362 21.1336 125.362 20.2696C125.362 19.5016 126.106 19.1416 127.066 19.1416C128.146 19.1416 128.89 19.4776 129.034 20.5816H132.634C132.442 18.1576 130.57 16.6456 127.09 16.6456C124.186 16.6456 121.786 17.9896 121.786 20.5816C121.786 23.4616 124.066 24.0376 126.202 24.3976C127.834 24.6856 129.322 24.8056 129.322 25.9096C129.322 26.7016 128.578 27.1336 127.402 27.1336C126.106 27.1336 125.29 26.5336 125.146 25.3096H121.45C121.57 28.0216 123.826 29.6776 127.426 29.6776Z" fill="#9CA3AF"/>
<path d="M138.331 29.6536C140.035 29.6536 141.115 28.9816 142.003 27.7816H142.075V29.2936H145.819V17.0056H141.907V23.8696C141.907 25.3336 141.091 26.3416 139.747 26.3416C138.499 26.3416 137.899 25.5976 137.899 24.2536V17.0056H134.011V25.0696C134.011 27.8056 135.499 29.6536 138.331 29.6536Z" fill="#9CA3AF"/>
<path d="M147.521 29.2936H151.433V22.4056C151.433 20.9416 152.153 19.9096 153.377 19.9096C154.553 19.9096 155.105 20.6776 155.105 21.9976V29.2936H159.017V22.4056C159.017 20.9416 159.713 19.9096 160.961 19.9096C162.137 19.9096 162.689 20.6776 162.689 21.9976V29.2936H166.601V21.3016C166.601 18.5416 165.209 16.6456 162.425 16.6456C160.841 16.6456 159.521 17.3176 158.561 18.8056H158.513C157.889 17.4856 156.665 16.6456 155.057 16.6456C153.281 16.6456 152.105 17.4856 151.337 18.7576H151.265V17.0056H147.521V29.2936Z" fill="#9CA3AF"/>
<path fill-rule="evenodd" clip-rule="evenodd" d="M8.65417 4.39144C7.22351 5.3918 5.92981 6.57455 4.80676 7.90597C9.39606 7.4799 15.2266 8.17562 21.9958 11.5603C29.2244 15.1745 35.0452 15.2967 39.0962 14.5153C38.7286 13.4024 38.2658 12.3328 37.7177 11.316C33.0804 11.8051 27.1354 11.1577 20.207 7.69355C15.8074 5.49375 11.9292 4.58758 8.65417 4.39144ZM35.0088 7.46022C31.3467 3.36857 26.0248 0.793579 20.1014 0.793579C18.3619 0.793579 16.6741 1.01569 15.0651 1.43306C17.2443 2.02766 19.5593 2.89756 21.9958 4.11584C27.0684 6.6521 31.4478 7.46873 35.0088 7.46022ZM39.9623 18.4217C35.0683 19.3881 28.3102 19.1896 20.207 15.138C12.6314 11.3502 6.60187 11.3979 2.53534 12.3016C2.32544 12.3482 2.12048 12.3972 1.92047 12.4482C1.38806 13.6061 0.963074 14.8237 0.658142 16.0881C0.983826 16.0011 1.32037 15.9184 1.6676 15.8412C6.60101 14.7449 13.5715 14.7925 21.9958 19.0047C29.5715 22.7925 35.601 22.7448 39.6676 21.8411C39.8069 21.8102 39.9442 21.7782 40.0792 21.7452C40.094 21.4299 40.1014 21.1126 40.1014 20.7936C40.1014 19.9911 40.0542 19.1996 39.9623 18.4217ZM39.4262 25.9659C34.5797 26.8132 28.0184 26.488 20.207 22.5824C12.6314 18.7946 6.60187 18.8423 2.53534 19.746C1.63269 19.9465 0.820679 20.1908 0.10437 20.4487C0.102417 20.5634 0.10144 20.6784 0.10144 20.7936C0.10144 31.8393 9.05573 40.7936 20.1014 40.7936C29.3585 40.7936 37.1467 34.5045 39.4262 25.9659Z" fill="#9CA3AF"/>
</g>
<defs>
<clipPath id="clip0_2986_633">
<rect width="167" height="41" fill="white" transform="translate(0 0.5)"/>
</clipPath>
</defs>
</svg>
